<svg xmlns="http://www.w3.org/2000/svg" viewBox="0 0 162 162">
  <style> * { fill: white; } @media (prefers-color-scheme: light) { * { fill: black; } } </style>
  <path d="M162,68.00153l-26.15552-3.8006L124.14734,40.5,115.791,57.43188A11.33876,11.33876,0,0,0,115.24,56.33c-.08008-.14-.1499-.27-.24-.4a13.40973,13.40973,0,0,0-7.95-5.96,3.81287,3.81287,0,0,0,.17993-.47,13.5,13.5,0,0,0-12.73-18H53.39A34.80159,34.80159,0,0,0,36,36.16L28.49,40.5l-7.51,4.34A34.80092,34.80092,0,0,1,3.59009,49.5H0v9H6a34.79149,34.79149,0,0,0,17.38-4.66L27,51.75l11.42993-6.6A34.82142,34.82142,0,0,1,55.80005,40.5H94.5a4.5,4.5,0,0,1,0,9H63v9h40.5A4.494,4.494,0,0,1,108,63a4.30414,4.30414,0,0,1-.09009.88c-.02991.14-.05993.28-.09985.42,0,.01-.01.02-.01.04a4.7197,4.7197,0,0,1-4.4,3.16H63v9h40.5a4.50877,4.50877,0,0,1,4.48,4.95,4.63642,4.63642,0,0,1-4.67993,4.05H63v9h40.5a4.50877,4.50877,0,0,1,4.48,4.95,4.63642,4.63642,0,0,1-4.67993,4.05H54v9H76.5a4.50877,4.50877,0,0,1,4.48,4.95,4.63642,4.63642,0,0,1-4.67993,4.05h-20.5a34.82086,34.82086,0,0,1-17.37012-4.65L27,110.25l-3.62-2.09A34.79205,34.79205,0,0,0,6,103.5H0v9H3.59009A34.80148,34.80148,0,0,1,20.98,117.16l7.51,4.34L36,125.84a34.801,34.801,0,0,0,17.39,4.66H76.12a13.7438,13.7438,0,0,0,13.86-12.74,13.45953,13.45953,0,0,0-.75-5.26h13.9a13.971,13.971,0,0,0,12.60242-7.87506l8.41492-4.424L147.5415,112.5l-4.46777-26.04987Z"/>
</svg>
