  <svg xmlns="http://www.w3.org/2000/svg" viewBox="0 0 162 162">
    <style> * { fill: white; } @media (prefers-color-scheme: light) { * { fill: black; } } </style>
    <g>
      <path d="M123.94054,55.95707C120.56726,48.72322,111.1981,45.111,98.75855,45.111a74.80617,74.80617,0,0,0-8.40233.50789C85.067,29.82772,76.48576,19.54941,66.79186,19.54941S48.51668,29.82759,43.22749,45.61863a74.78793,74.78793,0,0,0-8.40233-.50763c-12.43955.00073-21.80871,3.61222-25.182,10.84607C6.224,63.28947,9.6187,72.94581,17.85366,82.60589,9.6187,92.266,6.224,101.92245,9.64317,109.25485c3.37328,7.23378,12.74244,10.84607,25.182,10.84607a74.80626,74.80626,0,0,0,8.40233-.5079c5.28919,15.79118,13.87046,26.06949,23.56437,26.06949S85.067,135.3842,90.35622,119.593a74.80626,74.80626,0,0,0,8.40233.5079c12.43955,0,21.80871-3.61229,25.182-10.84607,3.41919-7.3324.02447-16.98887-8.21049-26.649C123.965,72.94581,127.35973,63.28947,123.94054,55.95707ZM98.75855,54.812c8.47075,0,14.90414,2.05881,16.38979,5.24484,1.31144,2.81223-.58592,8.6468-6.22879,15.55631A107.50387,107.50387,0,0,0,94.71278,64.81834c-.45579-3.36248-1.03158-6.61273-1.7271-9.7164C94.97436,54.91688,96.90843,54.812,98.75855,54.812ZM74.99142,100.19015c-2.71485,1.266-5.45734,2.42289-8.19956,3.47111-2.74223-1.04822-5.48472-2.20513-8.19957-3.47111-3.8463-1.79354-7.39247-3.66294-10.65482-5.5726-.352-3.76387-.54763-7.76773-.54763-12.01159s.19566-8.24773.54763-12.01159c3.26235-1.90966,6.80852-3.77906,10.65482-5.57261,2.71485-1.266,5.45734-2.42295,8.19957-3.47116,2.74222,1.04821,5.48471,2.20518,8.19956,3.47116,3.8463,1.79355,7.39247,3.66295,10.65482,5.57261.352,3.76386.54763,7.76773.54763,12.01159s-.19566,8.24772-.54763,12.01159C82.38389,96.52721,78.83772,98.39661,74.99142,100.19015Zm8.85812,6.45188c-.14066.671-.28513,1.33315-.43579,1.98216q-1.20985-.257-2.43433-.5494Q82.43205,107.37048,83.84954,106.642Zm-31.24525,1.43276q-1.22487.2927-2.43433.5494c-.15066-.649-.29513-1.31111-.43579-1.98216Q51.15187,107.37071,52.60429,108.07479ZM37.79883,87.90738c-2.36946-1.77492-4.52392-3.55057-6.44707-5.30142,1.92315-1.75085,4.07761-3.5265,6.44707-5.30142-.06723,1.74953-.11,3.51426-.11,5.30142S37.7316,86.15785,37.79883,87.90738ZM49.73417,58.56982q.211-1.00677.43592-1.98242,1.20987.257,2.43446.54947Q51.15193,57.84117,49.73417,58.56982Zm31.24525-1.43276q1.22487-.29259,2.4342-.54934.22619.97352.43592,1.9821Q82.432,57.84113,80.97942,57.13706ZM95.78488,77.30454c2.36946,1.77492,4.52392,3.55057,6.44707,5.30142-1.92315,1.75085-4.07761,3.5265-6.44707,5.30142.06723-1.74953.11-3.51426.11-5.30142S95.85211,79.05407,95.78488,77.30454Zm-28.993-48.05412c3.775,0,9.59469,6.2001,13.8769,17.9857a118.66923,118.66923,0,0,0-13.87664,3.97551,118.70422,118.70422,0,0,0-13.877-3.97577C57.19729,35.45039,63.01687,29.25042,66.79186,29.25042ZM18.43524,60.05692c1.48552-3.18571,7.91917-5.24438,16.392-5.24491H34.829c1.8488,0,3.78169.10474,5.76905.28967-.69552,3.10373-1.27131,6.35411-1.7271,9.71666A107.50387,107.50387,0,0,0,24.66416,75.61316C19.02129,68.70365,17.12393,62.86914,18.43524,60.05692Zm16.38992,50.34292c-8.47075,0-14.90414-2.05874-16.38979-5.24484-1.31144-2.81223.58592-8.64674,6.22879-15.55624a107.50448,107.50448,0,0,0,14.20677,10.79475c.45566,3.36248,1.03158,6.61273,1.7271,9.7164C38.60935,110.295,36.67528,110.39984,34.82516,110.39984Zm31.9667,25.56166c-3.775,0-9.5947-6.2001-13.87691-17.98577a118.67887,118.67887,0,0,0,13.87691-3.97551,118.67817,118.67817,0,0,0,13.8769,3.97551C76.38655,129.7614,70.56684,135.9615,66.79186,135.9615Zm48.35661-30.80657c-1.48578,3.18617-7.91917,5.24491-16.38992,5.24491-1.85012,0-3.78419-.10487-5.77287-.28993.69552-3.10367,1.27144-6.35392,1.7271-9.7164a107.50448,107.50448,0,0,0,14.20677-10.79475C114.56242,96.50826,116.45978,102.34277,115.14847,105.15493Z"/>
      <circle cx="66.79186" cy="82.60596" r="9.70101"/>
      <circle cx="134.69891" cy="38.95142" r="9.70101"/>
      <circle cx="110.44639" cy="34.10092" r="4.8505"/>
      <circle cx="149.25042" cy="63.20394" r="7.27576"/>
    </g>
  </svg>
