 <svg xmlns="http://www.w3.org/2000/svg" viewBox="0 0 162 162">
    <style> * { fill: white; } @media (prefers-color-scheme: light) { * { fill: black; } } </style>
    <g>
      <path d="M103.89,130.50024H45V40.49976l-.00012-.00275A26.96631,26.96631,0,0,0,43.46,31.50024H108a9.01357,9.01357,0,0,1,9,9V67.30029c.87-.74005,1.75-1.55,2.64-2.44L126,58.50024v-18a18.00144,18.00144,0,0,0-18-18H27.00964L27,22.49976a17.993,17.993,0,0,0-18,18v18H36v81.00048h75.97A63.77482,63.77482,0,0,1,103.89,130.50024ZM18,49.49976v-9a8.97959,8.97959,0,0,1,6.73975-8.7132,9.00551,9.00551,0,0,1,11.26013,8.71063l.00012.003v8.99952Z"/>
      <rect x="54" y="49.49976" width="54" height="9"/>
      <rect x="54" y="67.49976" width="54" height="9"/>
      <path d="M54,85.50024v9H90.49c-.29-2.86-.46-5.86-.48-9Z"/>
      <path d="M54,112.50024H94.44a74.72312,74.72312,0,0,1-2.52-9H54Z"/>
      <path d="M126,71.22778C112.5,84.72772,99,84.72772,99,84.72772c0,40.50006,27,54.00006,27,54.00006s27-13.5,27-54.00006C153,84.72772,139.50006,84.72772,126,71.22778Z"/>
    </g>
  </svg>
