<svg xmlns="http://www.w3.org/2000/svg" viewBox="0 0 162 162">
  <style> * { fill: white; } @media (prefers-color-scheme: light) { * { fill: black; } } </style>
  <g>
    <path d="M142.59406,113.8172a13.125,13.125,0,1,0-15.18812,0,22.501,22.501,0,0,0-8.15594,5.12042,22.501,22.501,0,0,0-8.15594-5.12042,13.125,13.125,0,1,0-15.18812,0A22.501,22.501,0,0,0,87.75,118.93762a22.501,22.501,0,0,0-8.15594-5.12042,13.125,13.125,0,1,0-15.18812,0A22.50652,22.50652,0,0,0,49.5,135h108A22.50652,22.50652,0,0,0,142.59406,113.8172Z"/>
    <path d="M40.5,117V72h45v9h9V63h27V81h9V45a18,18,0,0,0-18-18h-90a18,18,0,0,0-18,18v63a18,18,0,0,0,18,18h18Zm54-81h18a9.01019,9.01019,0,0,1,9,9v9h-27Zm-54,0h45V63h-45Zm-9,81h-9a9.01023,9.01023,0,0,1-9-9V81h18Zm0-45h-18V45a9.01019,9.01019,0,0,1,9-9h9Z"/>
  </g>
</svg>
