<svg xmlns="http://www.w3.org/2000/svg" viewBox="0 0 162 162">
  <style> * { fill: white; } @media (prefers-color-scheme: light) { * { fill: black; } } </style>
  <g>
    <path d="M139.5,31.5H99v9h40.5A4.50508,4.50508,0,0,1,144,45V99a4.50508,4.50508,0,0,1-4.5,4.5h-99A4.50512,4.50512,0,0,1,36,99V94.5H27V99a13.5,13.5,0,0,0,13.5,13.5H72v18H54v9h72v-9H108v-18h31.5A13.5,13.5,0,0,0,153,99V45A13.5,13.5,0,0,0,139.5,31.5ZM99,130.5H81v-18H99Z"/>
    <path d="M90,76.5v-45a9.00072,9.00072,0,0,0-9-9H18a9.00072,9.00072,0,0,0-9,9v45a9.00076,9.00076,0,0,0,9,9H81A9.00076,9.00076,0,0,0,90,76.5ZM43.62,66.73l-6.37,6.36L18.16,54,24.53,47.64,37.25,34.91l6.37,6.36L30.89,54Zm18.13,6.36-6.37-6.36L68.11,54,55.38,41.27l6.37-6.36L74.47,47.64,80.84,54Z"/>
  </g>
</svg>
