<svg xmlns="http://www.w3.org/2000/svg" viewBox="0 0 162 162">
  <style> * { fill: white; } @media (prefers-color-scheme: light) { * { fill: black; } } </style>
  <g>
    <rect y="55.69153" width="18" height="9"/>
    <rect x="45" y="55.69153" width="53.31" height="9"/>
    <rect x="125.31" y="55.69153" width="36.69" height="9"/>
    <path d="M144,82.69153v-9h-9v9H116.312V55.03583A15.90205,15.90205,0,0,0,118.418,25.30847V39.62592l-6.60608,3.814-6.60608-3.814V25.30847A15.90205,15.90205,0,0,0,107.312,55.03583v27.6557H54v-9H45v9H36V44.30182a49.60476,49.60476,0,0,1,15.52533,2.38971C51.52533,33.228,45,30.83832,36,30.83832H18v13.4635h9V82.69153H0v9H9v27a18,18,0,0,0,18,18H54a18,18,0,0,0,18-18v-27H90v27a18,18,0,0,0,18,18h27a18,18,0,0,0,18-18v-27h9v-9H144Zm-81,36a9.0102,9.0102,0,0,1-9,9H27a9.0102,9.0102,0,0,1-9-9v-27H63Zm81,0a9.0102,9.0102,0,0,1-9,9H108a9.0102,9.0102,0,0,1-9-9v-27h45Z"/>
    <rect x="27" y="100.69153" width="27" height="9"/>
    <rect x="108" y="100.69153" width="27" height="9"/>
  </g>
</svg>
