<svg xmlns="http://www.w3.org/2000/svg" viewBox="0 0 162 162">
  <style> * { fill: white; } @media (prefers-color-scheme: light) { * { fill: black; } } </style>
  <g>
    <path d="M117.24725,84.16852A31.49815,31.49815,0,0,0,89.97089,28.32019,40.4053,40.4053,0,0,1,96.27942,81.542,63.00359,63.00359,0,0,1,126,135h27A54.01619,54.01619,0,0,0,117.24725,84.16852Z"/>
    <path d="M81.24725,84.16852a31.5,31.5,0,1,0-36.4945,0A54.01619,54.01619,0,0,0,9,135H117A54.01619,54.01619,0,0,0,81.24725,84.16852ZM40.5,58.5A22.5,22.5,0,1,1,63,81,22.5255,22.5255,0,0,1,40.5,58.5ZM63,90a45.07937,45.07937,0,0,1,44.096,36H18.90411A45.07926,45.07926,0,0,1,63,90Z"/>
  </g>
</svg>
