<svg width="110" height="53" xmlns="http://www.w3.org/2000/svg"><path d="M10.3 17.1v31.7s-.35.255-.92.638l-.257.172C6.42 51.4 0 55.226 0 51.2V19.5c3.3-3.4 10.3-2.4 10.3-2.4zM93.1.3s.9 5.8-2.4 8.9h-4.8c-6.9 0-8.8 1.3-8.8 5V17h31.7v31.8l-.052.035-.15.1c-1.443.951-10.098 6.482-10.098 2.265V25.8H77.1v23l-.052.035-.15.1C75.454 49.886 66.8 55.417 66.8 51.2V14C66.8 3.3 71 .3 85.9.3zM38.2 16.2c17.6 0 20.9 4.3 20.9 14.5v18.1l-.006.004-.049.032c-.095.063-.313.204-.621.398l-.249.154C55.663 50.94 48.9 54.783 48.9 51.2V31.7c0-5.1-2.2-6.5-10.7-6.5-8.1 0-10.7 1.1-10.7 6.5v17.1s-10.2 6.6-10.2 2.4V30.7c0-10.2 3.4-14.5 20.9-14.5zM103.9 0c3.3 0 5.9 2.7 5.9 5.9 0 3.3-2.6 5.9-5.9 5.9-3.3 0-5.9-2.6-5.9-5.9 0-3.3 2.6-5.9 5.9-5.9z" fill="#F67905" fill-rule="nonzero"/></svg>