<svg width="1916" height="1303" viewBox="0 0 1916 1303" fill="none" xmlns="http://www.w3.org/2000/svg">
<g clip-path="url(#clip0_74_2)">
<path d="M798.456 351.231H734.25V253.538C734.251 250.211 733.684 246.907 732.571 243.769H802.938C805.54 243.769 808.036 244.798 809.876 246.631C811.716 248.463 812.75 250.947 812.75 253.538V282.629C813.699 281.826 814.658 280.947 815.628 279.98L822.562 273.077V253.538C822.562 248.357 820.495 243.387 816.814 239.723C813.134 236.058 808.142 234 802.938 234H714.625C709.42 234 704.428 236.058 700.748 239.723C697.068 243.387 695 248.357 695 253.538V273.077H724.438V361H807.299C804.047 358.03 801.086 354.759 798.456 351.231ZM704.812 263.308V253.538C704.813 251.375 705.535 249.273 706.865 247.562C708.195 245.85 710.057 244.627 712.161 244.084C713.611 243.709 715.129 243.67 716.596 243.97C718.064 244.27 719.444 244.9 720.629 245.813C721.814 246.726 722.773 247.897 723.434 249.236C724.094 250.575 724.437 252.047 724.438 253.538V263.308H704.812Z" fill="black" fill-opacity="0.04"/>
<path d="M802.938 263.308H744.062V273.077H802.938V263.308Z" fill="black" fill-opacity="0.04"/>
<path d="M802.938 282.846H744.062V292.615H802.938V282.846Z" fill="black" fill-opacity="0.04"/>
<path d="M744.062 302.385V312.154H783.847C783.531 309.049 783.345 305.793 783.323 302.385H744.062Z" fill="black" fill-opacity="0.04"/>
<path d="M744.062 331.692H788.153C787.034 328.496 786.116 325.233 785.406 321.923H744.062V331.692Z" fill="black" fill-opacity="0.04"/>
<path d="M822.562 286.895C807.844 301.549 793.125 301.549 793.125 301.549C793.125 345.51 822.562 360.164 822.562 360.164C822.562 360.164 852 345.51 852 301.549C852 301.549 837.281 301.549 822.562 286.895Z" fill="black" fill-opacity="0.04"/>
</g>
<g clip-path="url(#clip1_74_2)">
<path d="M1413.8 739.757C1420.96 734.629 1426.09 727.114 1428.26 718.548C1430.43 709.983 1429.5 700.923 1425.64 692.981C1421.78 685.038 1415.24 678.728 1407.18 675.172C1399.12 671.617 1390.06 671.047 1381.62 673.564C1390.33 681.348 1395.89 692.062 1397.27 703.684C1398.64 715.305 1395.73 727.029 1389.07 736.64C1399.79 743.344 1408.64 752.679 1414.77 763.764C1420.9 774.849 1424.12 787.32 1424.12 800H1456C1456 786.817 1451.95 773.956 1444.39 763.173C1436.84 752.39 1426.15 744.212 1413.8 739.757Z" fill="black" fill-opacity="0.04"/>
<path d="M1371.3 739.757C1377.72 735.17 1382.53 728.651 1385.03 721.14C1387.52 713.63 1387.57 705.518 1385.18 697.976C1382.78 690.433 1378.05 683.852 1371.69 679.182C1365.32 674.511 1357.64 671.995 1349.75 671.995C1341.86 671.995 1334.18 674.511 1327.81 679.182C1321.45 683.852 1316.72 690.433 1314.32 697.976C1311.93 705.518 1311.98 713.63 1314.47 721.14C1316.97 728.651 1321.78 735.17 1328.2 739.757C1315.85 744.212 1305.16 752.39 1297.61 763.173C1290.05 773.956 1286 786.817 1286 800H1413.5C1413.5 786.817 1409.45 773.956 1401.89 763.173C1394.34 752.39 1383.65 744.212 1371.3 739.757ZM1323.19 709.333C1323.19 704.059 1324.75 698.904 1327.66 694.518C1330.58 690.133 1334.73 686.715 1339.58 684.697C1344.44 682.678 1349.78 682.15 1354.93 683.179C1360.08 684.208 1364.82 686.748 1368.53 690.477C1372.25 694.207 1374.78 698.958 1375.8 704.131C1376.83 709.304 1376.3 714.666 1374.29 719.538C1372.28 724.411 1368.88 728.576 1364.51 731.506C1360.14 734.436 1355 736 1349.75 736C1342.71 735.994 1335.95 733.182 1330.97 728.183C1325.99 723.183 1323.19 716.404 1323.19 709.333ZM1349.75 746.667C1361.99 746.687 1373.85 750.94 1383.33 758.712C1392.82 766.483 1399.34 777.297 1401.81 789.333H1297.69C1300.16 777.297 1306.68 766.483 1316.17 758.712C1325.65 750.94 1337.51 746.687 1349.75 746.667Z" fill="black" fill-opacity="0.04"/>
</g>
<g clip-path="url(#clip2_74_2)">
<path d="M509.795 105.757C516.965 100.629 522.09 93.1138 524.258 84.5485C526.427 75.9832 525.499 66.9233 521.639 58.9806C517.778 51.038 511.237 44.7276 503.177 41.1723C495.118 37.617 486.064 37.0473 477.625 39.5645C486.33 47.3478 491.895 58.0622 493.267 69.6837C494.64 81.3052 491.725 93.0289 485.074 102.64C495.795 109.344 504.638 118.679 510.771 129.764C516.903 140.85 520.122 153.32 520.125 166H552C552.002 152.817 547.949 139.956 540.394 129.173C532.84 118.39 522.154 110.212 509.795 105.757Z" fill="black" fill-opacity="0.04"/>
<path d="M467.295 105.757C473.723 101.17 478.532 94.6507 481.027 87.1404C483.522 79.63 483.575 71.5177 481.177 63.9755C478.778 56.4333 474.054 49.8518 467.686 45.1816C461.318 40.5115 453.636 37.9946 445.75 37.9946C437.864 37.9946 430.182 40.5115 423.814 45.1816C417.446 49.8518 412.722 56.4333 410.323 63.9755C407.925 71.5177 407.978 79.63 410.473 87.1404C412.968 94.6507 417.777 101.17 424.205 105.757C411.846 110.212 401.16 118.39 393.606 129.173C386.051 139.956 381.998 152.817 382 166H509.5C509.502 152.817 505.449 139.956 497.894 129.173C490.34 118.39 479.654 110.212 467.295 105.757ZM419.188 75.3335C419.188 70.0593 420.745 64.9036 423.664 60.5183C426.583 56.133 430.731 52.715 435.585 50.6967C440.439 48.6783 445.779 48.1502 450.932 49.1792C456.085 50.2081 460.818 52.7479 464.533 56.4773C468.247 60.2067 470.777 64.9582 471.802 70.1311C472.827 75.3039 472.301 80.6656 470.291 85.5383C468.28 90.411 464.876 94.5758 460.507 97.506C456.139 100.436 451.004 102 445.75 102C438.707 101.994 431.954 99.1823 426.974 94.1827C421.994 89.1831 419.194 82.404 419.188 75.3335ZM445.75 112.667C457.991 112.687 469.852 116.94 479.334 124.712C488.817 132.483 495.343 143.297 497.813 155.333H393.688C396.157 143.297 402.683 132.483 412.166 124.712C421.648 116.94 433.509 112.687 445.75 112.667Z" fill="black" fill-opacity="0.04"/>
</g>
<g clip-path="url(#clip3_74_2)">
<path d="M1376.19 101.769H1331.75V111.539H1376.19C1377.5 111.541 1378.75 112.057 1379.68 112.972C1380.6 113.888 1381.12 115.129 1381.13 116.423V175.039C1381.12 176.333 1380.6 177.574 1379.68 178.489C1378.75 179.405 1377.5 179.92 1376.19 179.923H1267.56C1266.25 179.92 1265 179.405 1264.07 178.489C1263.15 177.574 1262.63 176.333 1262.63 175.039V170.154H1252.75V175.039C1252.75 176.963 1253.13 178.869 1253.87 180.648C1254.62 182.427 1255.71 184.043 1257.09 185.404C1258.46 186.765 1260.09 187.844 1261.89 188.58C1263.69 189.316 1265.62 189.694 1267.56 189.692H1302.13V209.231H1282.38V219H1361.38V209.231H1341.63V189.692H1376.19C1378.13 189.694 1380.06 189.316 1381.86 188.58C1383.66 187.844 1385.29 186.765 1386.66 185.404C1388.04 184.043 1389.13 182.427 1389.88 180.648C1390.62 178.869 1391 176.963 1391 175.039V116.423C1391 114.498 1390.62 112.592 1389.88 110.814C1389.13 109.035 1388.04 107.419 1386.66 106.058C1385.29 104.697 1383.66 103.618 1381.86 102.882C1380.06 102.146 1378.13 101.768 1376.19 101.769ZM1331.75 209.231H1312V189.692H1331.75V209.231Z" fill="black" fill-opacity="0.04"/>
<path d="M1321.88 150.615V101.769C1321.88 99.1783 1320.83 96.6934 1318.98 94.8614C1317.13 93.0293 1314.62 92 1312 92H1242.88C1240.26 92 1237.74 93.0293 1235.89 94.8614C1234.04 96.6934 1233 99.1783 1233 101.769V150.615C1233 153.206 1234.04 155.691 1235.89 157.523C1237.74 159.355 1240.26 160.385 1242.88 160.385H1312C1314.62 160.385 1317.13 159.355 1318.98 157.523C1320.83 155.691 1321.88 153.206 1321.88 150.615ZM1270.99 140.01L1264 146.914L1243.05 126.192L1250.04 119.289L1264 105.471L1270.99 112.374L1257.02 126.192L1270.99 140.01ZM1290.88 146.914L1283.89 140.01L1297.86 126.192L1283.89 112.374L1290.88 105.471L1304.84 119.289L1311.82 126.192L1290.88 146.914Z" fill="black" fill-opacity="0.04"/>
</g>
<g clip-path="url(#clip4_74_2)">
<path d="M935.281 647.846H891.125V657.692H935.281C936.582 657.695 937.828 658.215 938.747 659.137C939.667 660.06 940.185 661.311 940.188 662.615V721.692C940.185 722.997 939.667 724.248 938.747 725.17C937.828 726.093 936.582 726.612 935.281 726.615H827.344C826.043 726.612 824.797 726.093 823.878 725.17C822.958 724.248 822.44 722.997 822.438 721.692V716.769H812.625V721.692C812.624 723.632 813.003 725.553 813.742 727.346C814.482 729.138 815.566 730.767 816.933 732.139C818.3 733.511 819.923 734.598 821.709 735.34C823.496 736.082 825.41 736.463 827.344 736.462H861.688V756.154H842.063V766H920.562V756.154H900.938V736.462H935.281C937.215 736.463 939.129 736.082 940.916 735.34C942.702 734.598 944.325 733.511 945.692 732.139C947.059 730.767 948.143 729.138 948.883 727.346C949.622 725.553 950.001 723.632 950 721.692V662.615C950.001 660.675 949.622 658.754 948.883 656.962C948.143 655.169 947.059 653.54 945.692 652.169C944.325 650.797 942.702 649.709 940.916 648.967C939.129 648.226 937.215 647.845 935.281 647.846ZM891.125 756.154H871.5V736.462H891.125V756.154Z" fill="black" fill-opacity="0.04"/>
<path d="M881.312 697.077V647.846C881.312 645.235 880.279 642.73 878.438 640.884C876.598 639.037 874.102 638 871.5 638H802.812C800.21 638 797.714 639.037 795.874 640.884C794.034 642.73 793 645.235 793 647.846V697.077C793 699.688 794.034 702.193 795.874 704.039C797.714 705.886 800.21 706.923 802.812 706.923H871.5C874.102 706.923 876.598 705.886 878.438 704.039C880.279 702.193 881.312 699.688 881.312 697.077ZM830.745 686.388L823.8 693.346L802.987 672.462L809.932 665.504L823.8 651.577L830.745 658.535L816.866 672.462L830.745 686.388ZM850.512 693.346L843.567 686.388L857.446 672.462L843.567 658.535L850.512 651.577L864.38 665.504L871.326 672.462L850.512 693.346Z" fill="black" fill-opacity="0.04"/>
</g>
<path d="M1644.46 493.094C1647.13 491.2 1649.13 488.507 1650.17 485.403C1651.21 482.298 1651.23 478.944 1650.24 475.826C1649.24 472.707 1647.28 469.985 1644.64 468.054C1641.99 466.122 1638.8 465.081 1635.53 465.081C1632.25 465.081 1629.06 466.122 1626.42 468.054C1623.78 469.985 1621.82 472.707 1620.82 475.826C1619.83 478.944 1619.85 482.298 1620.89 485.403C1621.93 488.507 1623.93 491.2 1626.6 493.094C1623 494.38 1619.72 496.435 1617 499.115C1614.28 496.435 1611 494.38 1607.4 493.094C1610.07 491.2 1612.07 488.507 1613.11 485.403C1614.15 482.298 1614.17 478.944 1613.18 475.826C1612.18 472.707 1610.22 469.985 1607.58 468.054C1604.94 466.122 1601.75 465.081 1598.47 465.081C1595.2 465.081 1592.01 466.122 1589.36 468.054C1586.72 469.985 1584.76 472.707 1583.76 475.826C1582.77 478.944 1582.79 482.298 1583.83 485.403C1584.87 488.507 1586.87 491.2 1589.54 493.094C1585.94 494.38 1582.67 496.435 1579.94 499.115C1577.22 496.435 1573.94 494.38 1570.34 493.094C1573.01 491.2 1575.01 488.507 1576.05 485.403C1577.09 482.298 1577.11 478.944 1576.12 475.826C1575.12 472.707 1573.16 469.985 1570.52 468.054C1567.88 466.122 1564.69 465.081 1561.41 465.081C1558.14 465.081 1554.95 466.122 1552.3 468.054C1549.66 469.985 1547.7 472.707 1546.7 475.826C1545.71 478.944 1545.73 482.298 1546.77 485.403C1547.81 488.507 1549.81 491.2 1552.48 493.094C1547.35 494.933 1542.91 498.313 1539.77 502.771C1536.63 507.229 1534.94 512.548 1534.94 518H1662C1662 512.548 1660.31 507.229 1657.17 502.771C1654.03 498.313 1649.59 494.933 1644.46 493.094Z" fill="black" fill-opacity="0.04"/>
<path d="M1524.35 496.833V443.917H1577.29V454.5H1587.88V433.333H1619.65V454.5H1630.24V412.167C1630.24 406.553 1628 401.169 1624.03 397.2C1620.06 393.23 1614.68 391 1609.06 391H1503.18C1497.56 391 1492.17 393.23 1488.2 397.2C1484.23 401.169 1482 406.553 1482 412.167V486.25C1482 491.864 1484.23 497.248 1488.2 501.217C1492.17 505.187 1497.56 507.417 1503.18 507.417H1524.35V496.833ZM1587.88 401.583H1609.06C1611.87 401.583 1614.56 402.698 1616.55 404.683C1618.53 406.668 1619.65 409.36 1619.65 412.167V422.75H1587.88V401.583ZM1524.35 401.583H1577.29V433.333H1524.35V401.583ZM1513.76 496.833H1503.18C1500.37 496.833 1497.68 495.718 1495.69 493.734C1493.7 491.749 1492.59 489.057 1492.59 486.25V454.5H1513.76V496.833ZM1513.76 443.917H1492.59V412.167C1492.59 409.36 1493.7 406.668 1495.69 404.683C1497.68 402.698 1500.37 401.583 1503.18 401.583H1513.76V443.917Z" fill="black" fill-opacity="0.04"/>
<g clip-path="url(#clip5_74_2)">
<path d="M274.444 545.641H254V555.903H274.444V545.641Z" fill="black" fill-opacity="0.04"/>
<path d="M365.661 545.641H305.111V555.903H365.661V545.641Z" fill="black" fill-opacity="0.04"/>
<path d="M438 545.641H396.327V555.903H438V545.641Z" fill="black" fill-opacity="0.04"/>
<path d="M417.556 576.427V566.165H407.333V576.427H386.105V544.888C389.637 543.845 392.767 541.743 395.076 538.864C397.384 535.985 398.761 532.466 399.022 528.779C399.283 525.092 398.415 521.414 396.534 518.236C394.654 515.059 391.851 512.534 388.502 511V527.317L380.994 531.673L373.498 527.317V511C370.148 512.533 367.345 515.057 365.463 518.233C363.582 521.41 362.713 525.089 362.973 528.775C363.232 532.462 364.608 535.981 366.915 538.861C369.223 541.74 372.352 543.843 375.883 544.888V576.427H315.333V566.165H305.111V576.427H294.889V532.653C300.875 532.616 306.83 533.536 312.528 535.378C312.528 520.031 305.111 517.306 294.889 517.306H274.444V532.653H284.667V576.427H254V586.689H264.222V617.476C264.222 622.919 266.376 628.139 270.21 631.989C274.044 635.838 279.244 638 284.667 638H315.333C320.756 638 325.956 635.838 329.79 631.989C333.624 628.139 335.778 622.919 335.778 617.476V586.689H356.222V617.476C356.222 622.919 358.376 628.139 362.21 631.989C366.044 635.838 371.244 638 376.667 638H407.333C412.756 638 417.956 635.838 421.79 631.989C425.624 628.139 427.778 622.919 427.778 617.476V586.689H438V576.427H417.556ZM325.556 617.476C325.556 620.197 324.479 622.808 322.562 624.732C320.644 626.657 318.044 627.738 315.333 627.738H284.667C281.956 627.738 279.356 626.657 277.438 624.732C275.521 622.808 274.444 620.197 274.444 617.476V586.689H325.556V617.476ZM417.556 617.476C417.556 620.197 416.479 622.808 414.562 624.732C412.645 626.657 410.044 627.738 407.333 627.738H376.667C373.956 627.738 371.356 626.657 369.438 624.732C367.521 622.808 366.444 620.197 366.444 617.476V586.689H417.556V617.476Z" fill="black" fill-opacity="0.04"/>
<path d="M315.333 596.951H284.667V607.214H315.333V596.951Z" fill="black" fill-opacity="0.04"/>
<path d="M407.333 596.951H376.667V607.214H407.333V596.951Z" fill="black" fill-opacity="0.04"/>
</g>
<g clip-path="url(#clip6_74_2)">
<path d="M1391.36 1189.24L1359.66 1184.64L1345.48 1155.91L1335.35 1176.43C1335.15 1175.98 1334.93 1175.53 1334.68 1175.1C1334.59 1174.93 1334.5 1174.77 1334.39 1174.61C1332.23 1171.06 1328.78 1168.47 1324.76 1167.39C1324.84 1167.2 1324.92 1167.01 1324.98 1166.82C1325.85 1164.35 1326.12 1161.71 1325.76 1159.11C1325.4 1156.52 1324.42 1154.05 1322.91 1151.92C1321.4 1149.78 1319.39 1148.03 1317.07 1146.83C1314.74 1145.63 1312.16 1145 1309.55 1145H1259.72C1252.32 1145 1245.05 1146.95 1238.64 1150.65L1229.53 1155.91L1220.43 1161.17C1214.02 1164.87 1206.75 1166.82 1199.35 1166.82H1195V1177.73H1202.27C1209.67 1177.72 1216.93 1175.78 1223.34 1172.08L1227.73 1169.55L1241.58 1161.55C1247.99 1157.86 1255.25 1155.91 1262.64 1155.91H1309.55C1310.99 1155.91 1312.38 1156.48 1313.4 1157.51C1314.43 1158.53 1315 1159.92 1315 1161.36C1315 1162.81 1314.43 1164.2 1313.4 1165.22C1312.38 1166.24 1310.99 1166.82 1309.55 1166.82H1271.36V1177.73H1320.45C1321.17 1177.73 1321.88 1177.87 1322.54 1178.14C1323.21 1178.41 1323.81 1178.82 1324.31 1179.32C1324.82 1179.83 1325.22 1180.43 1325.5 1181.09C1325.77 1181.76 1325.91 1182.47 1325.91 1183.18C1325.91 1183.54 1325.87 1183.9 1325.8 1184.25C1325.76 1184.42 1325.73 1184.59 1325.68 1184.76C1325.68 1184.77 1325.67 1184.78 1325.67 1184.81C1325.28 1185.91 1324.56 1186.88 1323.6 1187.56C1322.65 1188.25 1321.51 1188.62 1320.33 1188.64H1271.36V1199.55H1320.45C1321.22 1199.55 1321.97 1199.71 1322.67 1200.02C1323.36 1200.33 1323.99 1200.78 1324.5 1201.34C1325.01 1201.91 1325.4 1202.57 1325.64 1203.3C1325.87 1204.02 1325.96 1204.79 1325.88 1205.55C1325.71 1206.92 1325.03 1208.18 1323.99 1209.08C1322.94 1209.99 1321.6 1210.48 1320.21 1210.45H1271.36V1221.36H1320.45C1321.22 1221.36 1321.97 1221.53 1322.67 1221.83C1323.36 1222.14 1323.99 1222.6 1324.5 1223.16C1325.01 1223.73 1325.4 1224.39 1325.64 1225.12C1325.87 1225.84 1325.96 1226.61 1325.88 1227.36C1325.71 1228.74 1325.03 1230 1323.99 1230.9C1322.94 1231.81 1321.6 1232.3 1320.21 1232.27H1260.45V1243.18H1287.73C1288.49 1243.18 1289.24 1243.34 1289.94 1243.65C1290.64 1243.96 1291.26 1244.41 1291.77 1244.98C1292.28 1245.54 1292.67 1246.21 1292.91 1246.93C1293.15 1247.66 1293.23 1248.42 1293.16 1249.18C1292.98 1250.56 1292.31 1251.82 1291.26 1252.72C1290.21 1253.63 1288.87 1254.11 1287.48 1254.09H1262.64C1255.25 1254.09 1247.99 1252.14 1241.58 1248.45L1227.73 1240.45L1223.34 1237.92C1216.93 1234.22 1209.67 1232.28 1202.27 1232.27H1195V1243.18H1199.35C1206.75 1243.18 1214.02 1245.13 1220.43 1248.83L1229.53 1254.09L1238.64 1259.35C1245.05 1263.05 1252.32 1265 1259.72 1265H1287.27C1291.51 1265.05 1295.6 1263.48 1298.73 1260.61C1301.85 1257.74 1303.76 1253.79 1304.07 1249.56C1304.19 1247.39 1303.88 1245.23 1303.16 1243.18H1320.01C1323.19 1243.19 1326.32 1242.3 1329.02 1240.61C1331.72 1238.92 1333.89 1236.5 1335.28 1233.64L1345.48 1228.27L1373.84 1243.18L1368.42 1211.61L1391.36 1189.24Z" fill="black" fill-opacity="0.04"/>
</g>
<g clip-path="url(#clip7_74_2)">
<path d="M433.597 1139.09C430.253 1131.92 420.967 1128.34 408.637 1128.34C405.854 1128.35 403.073 1128.52 400.309 1128.84C395.066 1113.19 386.561 1103 376.952 1103C367.344 1103 358.838 1113.19 353.596 1128.84C350.832 1128.52 348.051 1128.35 345.268 1128.34C332.938 1128.34 323.652 1131.92 320.308 1139.09C316.919 1146.35 320.284 1155.93 328.446 1165.5C320.284 1175.07 316.919 1184.65 320.308 1191.91C323.652 1199.08 332.938 1202.66 345.268 1202.66C348.051 1202.65 350.832 1202.48 353.596 1202.16C358.838 1217.81 367.344 1228 376.952 1228C386.561 1228 395.066 1217.81 400.309 1202.16C403.073 1202.48 405.854 1202.65 408.637 1202.66C420.967 1202.66 430.253 1199.08 433.597 1191.91C436.986 1184.65 433.621 1175.07 425.459 1165.5C433.621 1155.93 436.986 1146.35 433.597 1139.09ZM408.637 1137.95C417.033 1137.95 423.41 1139.99 424.882 1143.15C426.182 1145.94 424.301 1151.72 418.708 1158.57C414.319 1154.62 409.609 1151.04 404.627 1147.87C404.175 1144.54 403.604 1141.32 402.915 1138.24C404.886 1138.06 406.803 1137.95 408.637 1137.95ZM385.08 1182.93C382.389 1184.18 379.67 1185.33 376.952 1186.37C374.234 1185.33 371.516 1184.18 368.825 1182.93C365.013 1181.15 361.498 1179.3 358.264 1177.41C357.916 1173.67 357.722 1169.71 357.722 1165.5C357.722 1161.29 357.916 1157.33 358.264 1153.59C361.498 1151.7 365.013 1149.85 368.825 1148.07C371.516 1146.82 374.234 1145.67 376.952 1144.63C379.67 1145.67 382.389 1146.82 385.08 1148.07C388.892 1149.85 392.407 1151.7 395.64 1153.59C395.989 1157.33 396.183 1161.29 396.183 1165.5C396.183 1169.71 395.989 1173.67 395.64 1177.41C392.407 1179.3 388.892 1181.15 385.08 1182.93ZM393.86 1189.32C393.72 1189.99 393.577 1190.65 393.428 1191.29C392.628 1191.12 391.824 1190.94 391.015 1190.74C391.975 1190.28 392.923 1189.81 393.86 1189.32ZM362.89 1190.74C362.081 1190.94 361.276 1191.12 360.477 1191.29C360.328 1190.65 360.185 1189.99 360.045 1189.32C360.982 1189.81 361.93 1190.28 362.89 1190.74ZM348.215 1170.75C345.867 1169 343.731 1167.24 341.825 1165.5C343.731 1163.76 345.867 1162 348.215 1160.25C348.149 1161.98 348.106 1163.73 348.106 1165.5C348.106 1167.27 348.149 1169.02 348.215 1170.75ZM360.045 1141.68C360.185 1141.01 360.329 1140.36 360.477 1139.71C361.277 1139.88 362.081 1140.06 362.89 1140.26C361.93 1140.72 360.982 1141.19 360.045 1141.68ZM391.015 1140.26C391.824 1140.06 392.628 1139.88 393.427 1139.71C393.577 1140.35 393.72 1141.01 393.86 1141.68C392.923 1141.19 391.975 1140.72 391.015 1140.26ZM405.69 1160.25C408.038 1162 410.173 1163.76 412.08 1165.5C410.174 1167.24 408.038 1169 405.69 1170.75C405.756 1169.02 405.798 1167.27 405.798 1165.5C405.798 1163.73 405.756 1161.98 405.69 1160.25ZM376.952 1112.62C380.694 1112.62 386.462 1118.76 390.707 1130.44C386.046 1131.48 381.453 1132.79 376.953 1134.38C372.452 1132.79 367.859 1131.48 363.198 1130.44C367.442 1118.76 373.211 1112.62 376.952 1112.62ZM329.023 1143.15C330.495 1139.99 336.872 1137.95 345.27 1137.95H345.272C347.104 1137.95 349.02 1138.06 350.99 1138.24C350.3 1141.31 349.73 1144.54 349.278 1147.87C344.296 1151.04 339.586 1154.62 335.197 1158.57C329.603 1151.72 327.723 1145.94 329.023 1143.15ZM345.268 1193.05C336.872 1193.05 330.495 1191.01 329.023 1187.85C327.723 1185.06 329.603 1179.28 335.197 1172.43C339.586 1176.38 344.296 1179.96 349.278 1183.13C349.73 1186.46 350.3 1189.68 350.99 1192.76C349.019 1192.94 347.102 1193.05 345.268 1193.05ZM376.952 1218.38C373.211 1218.38 367.442 1212.24 363.198 1200.56C367.858 1199.52 372.452 1198.21 376.952 1196.62C381.453 1198.21 386.046 1199.52 390.707 1200.56C386.462 1212.24 380.694 1218.38 376.952 1218.38ZM424.882 1187.85C423.41 1191.01 417.033 1193.05 408.637 1193.05C406.803 1193.05 404.886 1192.94 402.915 1192.76C403.604 1189.68 404.175 1186.46 404.627 1183.13C409.609 1179.96 414.319 1176.38 418.708 1172.43C424.301 1179.28 426.182 1185.06 424.882 1187.85Z" fill="black" fill-opacity="0.04"/>
<path d="M376.952 1175.12C382.263 1175.12 386.568 1170.81 386.568 1165.5C386.568 1160.19 382.263 1155.88 376.952 1155.88C371.642 1155.88 367.337 1160.19 367.337 1165.5C367.337 1170.81 371.642 1175.12 376.952 1175.12Z" fill="black" fill-opacity="0.04"/>
<path d="M444.26 1131.85C449.571 1131.85 453.876 1127.54 453.876 1122.23C453.876 1116.92 449.571 1112.62 444.26 1112.62C438.95 1112.62 434.645 1116.92 434.645 1122.23C434.645 1127.54 438.95 1131.85 444.26 1131.85Z" fill="black" fill-opacity="0.04"/>
<path d="M420.222 1122.23C422.877 1122.23 425.029 1120.08 425.029 1117.42C425.029 1114.77 422.877 1112.62 420.222 1112.62C417.566 1112.62 415.414 1114.77 415.414 1117.42C415.414 1120.08 417.566 1122.23 420.222 1122.23Z" fill="black" fill-opacity="0.04"/>
<path d="M458.683 1153.48C462.666 1153.48 465.895 1150.25 465.895 1146.27C465.895 1142.29 462.666 1139.06 458.683 1139.06C454.7 1139.06 451.472 1142.29 451.472 1146.27C451.472 1150.25 454.7 1153.48 458.683 1153.48Z" fill="black" fill-opacity="0.04"/>
</g>
<defs>
<clipPath id="clip0_74_2">
<rect width="157" height="127" fill="black" transform="translate(695 234)"/>
</clipPath>
<clipPath id="clip1_74_2">
<rect width="170" height="128" fill="black" transform="translate(1286 672)"/>
</clipPath>
<clipPath id="clip2_74_2">
<rect width="170" height="128" fill="black" transform="translate(382 38)"/>
</clipPath>
<clipPath id="clip3_74_2">
<rect width="158" height="127" fill="black" transform="translate(1233 92)"/>
</clipPath>
<clipPath id="clip4_74_2">
<rect width="157" height="128" fill="black" transform="translate(793 638)"/>
</clipPath>
<clipPath id="clip5_74_2">
<rect width="184" height="127" fill="black" transform="translate(254 511)"/>
</clipPath>
<clipPath id="clip6_74_2">
<rect width="196.364" height="120" fill="black" transform="translate(1195 1145)"/>
</clipPath>
<clipPath id="clip7_74_2">
<rect width="146.895" height="125" fill="black" transform="translate(319 1103)"/>
</clipPath>
</defs>
</svg>
